{
  "accessors": [
    {
      "bufferView": 1,
      "componentType": 5123,
      "type": "SCALAR",
      "count": 1542
    },
    {
      "bufferView": 2,
      "componentType": 5126,
      "type": "VEC3",
      "count": 1028,
      "min": [11, 0, 0],
      "max": [16, 5, 15]
    },
    {
      "bufferView": 2,
      "componentType": 5126,
      "type": "VEC3",
      "byteOffset": 12,
      "count": 1028
    },
    {
      "bufferView": 2,
      "componentType": 5126,
      "type": "VEC2",
      "byteOffset": 24,
      "count": 1028
    },
    {
      "bufferView": 3,
      "componentType": 5123,
      "type": "SCALAR",
      "count": 1266
    },
    {
      "bufferView": 4,
      "componentType": 5126,
      "type": "VEC3",
      "count": 844,
      "min": [0, 1, 0],
      "max": [5, 6, 16]
    },
    {
      "bufferView": 4,
      "componentType": 5126,
      "type": "VEC3",
      "byteOffset": 12,
      "count": 844
    },
    {
      "bufferView": 4,
      "componentType": 5126,
      "type": "VEC2",
      "byteOffset": 24,
      "count": 844
    },
    {
      "bufferView": 5,
      "componentType": 5123,
      "type": "SCALAR",
      "count": 30
    },
    {
      "bufferView": 6,
      "componentType": 5126,
      "type": "VEC3",
      "count": 20,
      "min": [15, 15, 2],
      "max": [16, 16, 3]
    },
    {
      "bufferView": 6,
      "componentType": 5126,
      "type": "VEC3",
      "byteOffset": 12,
      "count": 20
    },
    {
      "bufferView": 6,
      "componentType": 5126,
      "type": "VEC2",
      "byteOffset": 24,
      "count": 20
    },
    {
      "bufferView": 7,
      "componentType": 5123,
      "type": "SCALAR",
      "count": 528
    },
    {
      "bufferView": 8,
      "componentType": 5126,
      "type": "VEC3",
      "count": 352,
      "min": [0, 12, 0],
      "max": [8, 15, 5]
    },
    {
      "bufferView": 8,
      "componentType": 5126,
      "type": "VEC3",
      "byteOffset": 12,
      "count": 352
    },
    {
      "bufferView": 8,
      "componentType": 5126,
      "type": "VEC2",
      "byteOffset": 24,
      "count": 352
    },
    {
      "bufferView": 9,
      "componentType": 5123,
      "type": "SCALAR",
      "count": 30
    },
    {
      "bufferView": 10,
      "componentType": 5126,
      "type": "VEC3",
      "count": 20,
      "min": [4, 3, 0],
      "max": [5, 4, 1]
    },
    {
      "bufferView": 10,
      "componentType": 5126,
      "type": "VEC3",
      "byteOffset": 12,
      "count": 20
    },
    {
      "bufferView": 10,
      "componentType": 5126,
      "type": "VEC2",
      "byteOffset": 24,
      "count": 20
    },
    {
      "bufferView": 11,
      "componentType": 5123,
      "type": "SCALAR",
      "count": 204
    },
    {
      "bufferView": 12,
      "componentType": 5126,
      "type": "VEC3",
      "count": 136,
      "min": [4, 11, 5],
      "max": [9, 16, 8]
    },
    {
      "bufferView": 12,
      "componentType": 5126,
      "type": "VEC3",
      "byteOffset": 12,
      "count": 136
    },
    {
      "bufferView": 12,
      "componentType": 5126,
      "type": "VEC2",
      "byteOffset": 24,
      "count": 136
    },
    {
      "bufferView": 13,
      "componentType": 5123,
      "type": "SCALAR",
      "count": 324
    },
    {
      "bufferView": 14,
      "componentType": 5126,
      "type": "VEC3",
      "count": 216,
      "min": [5, 12, 5],
      "max": [8, 15, 8]
    },
    {
      "bufferView": 14,
      "componentType": 5126,
      "type": "VEC3",
      "byteOffset": 12,
      "count": 216
    },
    {
      "bufferView": 14,
      "componentType": 5126,
      "type": "VEC2",
      "byteOffset": 24,
      "count": 216
    }
  ],
  "asset": {
    "generator": "goxel",
    "version": "2.0"
  },
  "bufferViews": [
    {
      "buffer": 0,
      "byteLength": 137
    },
    {
      "buffer": 2,
      "byteLength": 3084
    },
    {
      "buffer": 1,
      "byteLength": 32896,
      "byteStride": 32
    },
    {
      "buffer": 4,
      "byteLength": 2532
    },
    {
      "buffer": 3,
      "byteLength": 27008,
      "byteStride": 32
    },
    {
      "buffer": 6,
      "byteLength": 60
    },
    {
      "buffer": 5,
      "byteLength": 640,
      "byteStride": 32
    },
    {
      "buffer": 8,
      "byteLength": 1056
    },
    {
      "buffer": 7,
      "byteLength": 11264,
      "byteStride": 32
    },
    {
      "buffer": 10,
      "byteLength": 60
    },
    {
      "buffer": 9,
      "byteLength": 640,
      "byteStride": 32
    },
    {
      "buffer": 12,
      "byteLength": 408
    },
    {
      "buffer": 11,
      "byteLength": 4352,
      "byteStride": 32
    },
    {
      "buffer": 14,
      "byteLength": 648
    },
    {
      "buffer": 13,
      "byteLength": 6912,
      "byteStride": 32
    }
  ],
  "buffers": [
    {
      "uri": "data:application/octet-stream;base64,",
      "byteLength": 137
    },
    {
      "uri": "data:application/octet-stream;base64,",
      "byteLength": 32896
    },
    {
      "uri": "data:application/octet-stream;base64,",
      "byteLength": 3084
    },
    {
      "uri": "data:application/octet-stream;base64,",
      "byteLength": 27008
    },
    {
      "uri": "data:application/octet-stream;base64,",
      "byteLength": 2532
    },
    {
      "uri": "data:application/octet-stream;base64,",
      "byteLength": 640
    },
    {
      "uri": "data:application/octet-stream;base64,",
      "byteLength": 60
    },
    {
      "uri": "data:application/octet-stream;base64,",
      "byteLength": 11264
    },
    {
      "uri": "data:application/octet-stream;base64,",
      "byteLength": 1056
    },
    {
      "uri": "data:application/octet-stream;base64,",
      "byteLength": 640
    },
    {
      "uri": "data:application/octet-stream;base64,",
      "byteLength": 60
    },
    {
      "uri": "data:application/octet-stream;base64,",
      "byteLength": 4352
    },
    {
      "uri": "data:application/octet-stream;base64,",
      "byteLength": 408
    },
    {
      "uri": "data:application/octet-stream;base64,",
      "byteLength": 6912
    },
    {
      "uri": "data:application/octet-stream;base64,",
      "byteLength": 648
    }
  ],
  "images": [
    {
      "bufferView": 0,
      "mimeType": "image/png"
    }
  ],
  "meshes": [
    {
      "primitives": [
        {
          "indices": 0,
          "material": 0,
          "attributes": {
            "POSITION": 1,
            "NORMAL": 2,
            "TEXCOORD_0": 3
          }
        }
      ]
    },
    {
      "primitives": [
        {
          "indices": 4,
          "material": 0,
          "attributes": {
            "POSITION": 5,
            "NORMAL": 6,
            "TEXCOORD_0": 7
          }
        }
      ]
    },
    {
      "primitives": [
        {
          "indices": 8,
          "material": 0,
          "attributes": {
            "POSITION": 9,
            "NORMAL": 10,
            "TEXCOORD_0": 11
          }
        }
      ]
    },
    {
      "primitives": [
        {
          "indices": 12,
          "material": 0,
          "attributes": {
            "POSITION": 13,
            "NORMAL": 14,
            "TEXCOORD_0": 15
          }
        }
      ]
    },
    {
      "primitives": [
        {
          "indices": 16,
          "material": 0,
          "attributes": {
            "POSITION": 17,
            "NORMAL": 18,
            "TEXCOORD_0": 19
          }
        }
      ]
    },
    {
      "primitives": [
        {
          "indices": 20,
          "material": 1,
          "attributes": {
            "POSITION": 21,
            "NORMAL": 22,
            "TEXCOORD_0": 23
          }
        }
      ]
    },
    {
      "primitives": [
        {
          "indices": 24,
          "material": 2,
          "attributes": {
            "POSITION": 25,
            "NORMAL": 26,
            "TEXCOORD_0": 27
          }
        }
      ]
    }
  ],
  "materials": [
    {
      "name": "Material.1",
      "pbrMetallicRoughness": {
        "baseColorTexture": {
          "index": 0
        },
        "metallicFactor": 0.200000003,
        "roughnessFactor": 0.5
      }
    },
    {
      "name": "Light",
      "pbrMetallicRoughness": {
        "baseColorTexture": {
          "index": 0
        },
        "metallicFactor": 0.300000012,
        "roughnessFactor": 1.49011612e-08,
        "baseColorFactor": [1, 0.898039222, 0, 1]
      },
      "emissiveFactor": [1.19999969, 1.07764673, 0]
    },
    {
      "name": "Glass",
      "pbrMetallicRoughness": {
        "baseColorTexture": {
          "index": 0
        },
        "roughnessFactor": 0,
        "baseColorFactor": [0.239215687, 0.717647076, 1, 0.399999917]
      },
      "emissiveFactor": [0.310980439, 0.932941318, 1.30000019]
    }
  ],
  "nodes": [
    {
      "children": [ 6, 8, 10 ],
      "matrix": [1, 0, 0, 0, 0, 0, -1, 0, 0, 1, 0, 0, 0, 0, 0, 1]
    },
    {
      "mesh": 0,
      "translation": [-16, 0, 0]
    },
    {
      "mesh": 1,
      "translation": [0, 0, 0]
    },
    {
      "mesh": 2,
      "translation": [-16, -16, 0]
    },
    {
      "mesh": 3,
      "translation": [0, -16, 0]
    },
    {
      "mesh": 4,
      "translation": [0, 0, 16]
    },
    {
      "children": [ 1, 2, 3, 4, 5 ]
    },
    {
      "mesh": 5,
      "translation": [0, -16, 0]
    },
    {
      "children": [ 7 ]
    },
    {
      "mesh": 6,
      "translation": [0, -16, 0]
    },
    {
      "children": [ 9 ]
    }
  ],
  "scenes": [
    {
      "nodes": [ 0 ]
    }
  ],
  "textures": [
    {
      "source": 0
    }
  ]
}
