{
  "accessors": [
    {
      "bufferView": 1,
      "componentType": 5123,
      "type": "SCALAR",
      "count": 2586
    },
    {
      "bufferView": 2,
      "componentType": 5126,
      "type": "VEC3",
      "count": 1724,
      "min": [4, 12, 0],
      "max": [16, 16, 16]
    },
    {
      "bufferView": 2,
      "componentType": 5126,
      "type": "VEC3",
      "byteOffset": 12,
      "count": 1724
    },
    {
      "bufferView": 2,
      "componentType": 5126,
      "type": "VEC2",
      "byteOffset": 24,
      "count": 1724
    },
    {
      "bufferView": 3,
      "componentType": 5123,
      "type": "SCALAR",
      "count": 2592
    },
    {
      "bufferView": 4,
      "componentType": 5126,
      "type": "VEC3",
      "count": 1728,
      "min": [0, 12, 0],
      "max": [12, 16, 16]
    },
    {
      "bufferView": 4,
      "componentType": 5126,
      "type": "VEC3",
      "byteOffset": 12,
      "count": 1728
    },
    {
      "bufferView": 4,
      "componentType": 5126,
      "type": "VEC2",
      "byteOffset": 24,
      "count": 1728
    },
    {
      "bufferView": 5,
      "componentType": 5123,
      "type": "SCALAR",
      "count": 1668
    },
    {
      "bufferView": 6,
      "componentType": 5126,
      "type": "VEC3",
      "count": 1112,
      "min": [5, 0, 0],
      "max": [16, 3, 16]
    },
    {
      "bufferView": 6,
      "componentType": 5126,
      "type": "VEC3",
      "byteOffset": 12,
      "count": 1112
    },
    {
      "bufferView": 6,
      "componentType": 5126,
      "type": "VEC2",
      "byteOffset": 24,
      "count": 1112
    },
    {
      "bufferView": 7,
      "componentType": 5123,
      "type": "SCALAR",
      "count": 1482
    },
    {
      "bufferView": 8,
      "componentType": 5126,
      "type": "VEC3",
      "count": 988,
      "min": [0, 0, 0],
      "max": [11, 2, 16]
    },
    {
      "bufferView": 8,
      "componentType": 5126,
      "type": "VEC3",
      "byteOffset": 12,
      "count": 988
    },
    {
      "bufferView": 8,
      "componentType": 5126,
      "type": "VEC2",
      "byteOffset": 24,
      "count": 988
    },
    {
      "bufferView": 9,
      "componentType": 5123,
      "type": "SCALAR",
      "count": 522
    },
    {
      "bufferView": 10,
      "componentType": 5126,
      "type": "VEC3",
      "count": 348,
      "min": [8, 12, 0],
      "max": [16, 16, 3]
    },
    {
      "bufferView": 10,
      "componentType": 5126,
      "type": "VEC3",
      "byteOffset": 12,
      "count": 348
    },
    {
      "bufferView": 10,
      "componentType": 5126,
      "type": "VEC2",
      "byteOffset": 24,
      "count": 348
    },
    {
      "bufferView": 11,
      "componentType": 5123,
      "type": "SCALAR",
      "count": 726
    },
    {
      "bufferView": 12,
      "componentType": 5126,
      "type": "VEC3",
      "count": 484,
      "min": [0, 13, 0],
      "max": [9, 16, 5]
    },
    {
      "bufferView": 12,
      "componentType": 5126,
      "type": "VEC3",
      "byteOffset": 12,
      "count": 484
    },
    {
      "bufferView": 12,
      "componentType": 5126,
      "type": "VEC2",
      "byteOffset": 24,
      "count": 484
    },
    {
      "bufferView": 13,
      "componentType": 5123,
      "type": "SCALAR",
      "count": 108
    },
    {
      "bufferView": 14,
      "componentType": 5126,
      "type": "VEC3",
      "count": 72,
      "min": [13, 0, 0],
      "max": [16, 2, 2]
    },
    {
      "bufferView": 14,
      "componentType": 5126,
      "type": "VEC3",
      "byteOffset": 12,
      "count": 72
    },
    {
      "bufferView": 14,
      "componentType": 5126,
      "type": "VEC2",
      "byteOffset": 24,
      "count": 72
    },
    {
      "bufferView": 15,
      "componentType": 5123,
      "type": "SCALAR",
      "count": 312
    },
    {
      "bufferView": 16,
      "componentType": 5126,
      "type": "VEC3",
      "count": 208,
      "min": [0, 0, 0],
      "max": [8, 2, 3]
    },
    {
      "bufferView": 16,
      "componentType": 5126,
      "type": "VEC3",
      "byteOffset": 12,
      "count": 208
    },
    {
      "bufferView": 16,
      "componentType": 5126,
      "type": "VEC2",
      "byteOffset": 24,
      "count": 208
    },
    {
      "bufferView": 17,
      "componentType": 5123,
      "type": "SCALAR",
      "count": 492
    },
    {
      "bufferView": 18,
      "componentType": 5126,
      "type": "VEC3",
      "count": 328,
      "min": [12, 12, 3],
      "max": [16, 14, 16]
    },
    {
      "bufferView": 18,
      "componentType": 5126,
      "type": "VEC3",
      "byteOffset": 12,
      "count": 328
    },
    {
      "bufferView": 18,
      "componentType": 5126,
      "type": "VEC2",
      "byteOffset": 24,
      "count": 328
    },
    {
      "bufferView": 19,
      "componentType": 5123,
      "type": "SCALAR",
      "count": 516
    },
    {
      "bufferView": 20,
      "componentType": 5126,
      "type": "VEC3",
      "count": 344,
      "min": [0, 12, 4],
      "max": [5, 14, 16]
    },
    {
      "bufferView": 20,
      "componentType": 5126,
      "type": "VEC3",
      "byteOffset": 12,
      "count": 344
    },
    {
      "bufferView": 20,
      "componentType": 5126,
      "type": "VEC2",
      "byteOffset": 24,
      "count": 344
    }
  ],
  "asset": {
    "generator": "goxel",
    "version": "2.0"
  },
  "bufferViews": [
    {
      "buffer": 0,
      "byteLength": 328
    },
    {
      "buffer": 2,
      "byteLength": 5172
    },
    {
      "buffer": 1,
      "byteLength": 55168,
      "byteStride": 32
    },
    {
      "buffer": 4,
      "byteLength": 5184
    },
    {
      "buffer": 3,
      "byteLength": 55296,
      "byteStride": 32
    },
    {
      "buffer": 6,
      "byteLength": 3336
    },
    {
      "buffer": 5,
      "byteLength": 35584,
      "byteStride": 32
    },
    {
      "buffer": 8,
      "byteLength": 2964
    },
    {
      "buffer": 7,
      "byteLength": 31616,
      "byteStride": 32
    },
    {
      "buffer": 10,
      "byteLength": 1044
    },
    {
      "buffer": 9,
      "byteLength": 11136,
      "byteStride": 32
    },
    {
      "buffer": 12,
      "byteLength": 1452
    },
    {
      "buffer": 11,
      "byteLength": 15488,
      "byteStride": 32
    },
    {
      "buffer": 14,
      "byteLength": 216
    },
    {
      "buffer": 13,
      "byteLength": 2304,
      "byteStride": 32
    },
    {
      "buffer": 16,
      "byteLength": 624
    },
    {
      "buffer": 15,
      "byteLength": 6656,
      "byteStride": 32
    },
    {
      "buffer": 18,
      "byteLength": 984
    },
    {
      "buffer": 17,
      "byteLength": 10496,
      "byteStride": 32
    },
    {
      "buffer": 20,
      "byteLength": 1032
    },
    {
      "buffer": 19,
      "byteLength": 11008,
      "byteStride": 32
    }
  ],
  "buffers": [
    {
      "uri": "data:application/octet-stream;base64,",
      "byteLength": 328
    },
    {
      "uri": "data:application/octet-stream;base64,",
      "byteLength": 55168
    },
    {
      "uri": "data:application/octet-stream;base64,",
      "byteLength": 5172
    },
    {
      "uri": "data:application/octet-stream;base64,",
      "byteLength": 55296
    },
    {
      "uri": "data:application/octet-stream;base64,",
      "byteLength": 5184
    },
    {
      "uri": "data:application/octet-stream;base64,",
      "byteLength": 35584
    },
    {
      "uri": "data:application/octet-stream;base64,",
      "byteLength": 3336
    },
    {
      "uri": "data:application/octet-stream;base64,",
      "byteLength": 31616
    },
    {
      "uri": "data:application/octet-stream;base64,",
      "byteLength": 2964
    },
    {
      "uri": "data:application/octet-stream;base64,",
      "byteLength": 11136
    },
    {
      "uri": "data:application/octet-stream;base64,",
      "byteLength": 1044
    },
    {
      "uri": "data:application/octet-stream;base64,",
      "byteLength": 15488
    },
    {
      "uri": "data:application/octet-stream;base64,",
      "byteLength": 1452
    },
    {
      "uri": "data:application/octet-stream;base64,",
      "byteLength": 2304
    },
    {
      "uri": "data:application/octet-stream;base64,",
      "byteLength": 216
    },
    {
      "uri": "data:application/octet-stream;base64,",
      "byteLength": 6656
    },
    {
      "uri": "data:application/octet-stream;base64,",
      "byteLength": 624
    },
    {
      "uri": "data:application/octet-stream;base64,",
      "byteLength": 10496
    },
    {
      "uri": "data:application/octet-stream;base64,",
      "byteLength": 984
    },
    {
      "uri": "data:application/octet-stream;base64,",
      "byteLength": 11008
    },
    {
      "uri": "data:application/octet-stream;base64,",
      "byteLength": 1032
    }
  ],
  "images": [
    {
      "bufferView": 0,
      "mimeType": "image/png"
    }
  ],
  "meshes": [
    {
      "primitives": [
        {
          "indices": 0,
          "material": 0,
          "attributes": {
            "POSITION": 1,
            "NORMAL": 2,
            "TEXCOORD_0": 3
          }
        }
      ]
    },
    {
      "primitives": [
        {
          "indices": 4,
          "material": 0,
          "attributes": {
            "POSITION": 5,
            "NORMAL": 6,
            "TEXCOORD_0": 7
          }
        }
      ]
    },
    {
      "primitives": [
        {
          "indices": 8,
          "material": 0,
          "attributes": {
            "POSITION": 9,
            "NORMAL": 10,
            "TEXCOORD_0": 11
          }
        }
      ]
    },
    {
      "primitives": [
        {
          "indices": 12,
          "material": 0,
          "attributes": {
            "POSITION": 13,
            "NORMAL": 14,
            "TEXCOORD_0": 15
          }
        }
      ]
    },
    {
      "primitives": [
        {
          "indices": 16,
          "material": 0,
          "attributes": {
            "POSITION": 17,
            "NORMAL": 18,
            "TEXCOORD_0": 19
          }
        }
      ]
    },
    {
      "primitives": [
        {
          "indices": 20,
          "material": 0,
          "attributes": {
            "POSITION": 21,
            "NORMAL": 22,
            "TEXCOORD_0": 23
          }
        }
      ]
    },
    {
      "primitives": [
        {
          "indices": 24,
          "material": 0,
          "attributes": {
            "POSITION": 25,
            "NORMAL": 26,
            "TEXCOORD_0": 27
          }
        }
      ]
    },
    {
      "primitives": [
        {
          "indices": 28,
          "material": 0,
          "attributes": {
            "POSITION": 29,
            "NORMAL": 30,
            "TEXCOORD_0": 31
          }
        }
      ]
    },
    {
      "primitives": [
        {
          "indices": 32,
          "material": 1,
          "attributes": {
            "POSITION": 33,
            "NORMAL": 34,
            "TEXCOORD_0": 35
          }
        }
      ]
    },
    {
      "primitives": [
        {
          "indices": 36,
          "material": 1,
          "attributes": {
            "POSITION": 37,
            "NORMAL": 38,
            "TEXCOORD_0": 39
          }
        }
      ]
    }
  ],
  "materials": [
    {
      "name": "Material.1",
      "pbrMetallicRoughness": {
        "baseColorTexture": {
          "index": 0
        },
        "metallicFactor": 0.200000003
      }
    },
    {
      "name": "Lights",
      "pbrMetallicRoughness": {
        "baseColorTexture": {
          "index": 0
        },
        "metallicFactor": 0,
        "roughnessFactor": 0,
        "baseColorFactor": [0.964705884, 0.137254909, 0.137254909, 1]
      },
      "emissiveFactor": [1.92941177, 0.274509817, 0.274509817]
    }
  ],
  "nodes": [
    {
      "children": [ 9, 12 ],
      "matrix": [1, 0, 0, 0, 0, 0, -1, 0, 0, 1, 0, 0, 0, 0, 0, 1]
    },
    {
      "mesh": 0,
      "translation": [-16, -16, 0]
    },
    {
      "mesh": 1,
      "translation": [0, -16, 0]
    },
    {
      "mesh": 2,
      "translation": [-16, 0, 0]
    },
    {
      "mesh": 3,
      "translation": [0, 0, 0]
    },
    {
      "mesh": 4,
      "translation": [-16, -16, 16]
    },
    {
      "mesh": 5,
      "translation": [0, -16, 16]
    },
    {
      "mesh": 6,
      "translation": [-16, 0, 16]
    },
    {
      "mesh": 7,
      "translation": [0, 0, 16]
    },
    {
      "children": [ 1, 2, 3, 4, 5, 6, 7, 8 ]
    },
    {
      "mesh": 8,
      "translation": [-16, -16, 0]
    },
    {
      "mesh": 9,
      "translation": [0, -16, 0]
    },
    {
      "children": [ 10, 11 ]
    }
  ],
  "scenes": [
    {
      "nodes": [ 0 ]
    }
  ],
  "textures": [
    {
      "source": 0
    }
  ]
}
