{
  "accessors": [
    {
      "bufferView": 1,
      "componentType": 5123,
      "type": "SCALAR",
      "count": 858
    },
    {
      "bufferView": 2,
      "componentType": 5126,
      "type": "VEC3",
      "count": 572,
      "min": [9, 9, 0],
      "max": [16, 16, 8]
    },
    {
      "bufferView": 2,
      "componentType": 5126,
      "type": "VEC3",
      "byteOffset": 12,
      "count": 572
    },
    {
      "bufferView": 2,
      "componentType": 5126,
      "type": "VEC2",
      "byteOffset": 24,
      "count": 572
    },
    {
      "bufferView": 3,
      "componentType": 5123,
      "type": "SCALAR",
      "count": 474
    },
    {
      "bufferView": 4,
      "componentType": 5126,
      "type": "VEC3",
      "count": 316,
      "min": [0, 9, 0],
      "max": [5, 16, 5]
    },
    {
      "bufferView": 4,
      "componentType": 5126,
      "type": "VEC3",
      "byteOffset": 12,
      "count": 316
    },
    {
      "bufferView": 4,
      "componentType": 5126,
      "type": "VEC2",
      "byteOffset": 24,
      "count": 316
    },
    {
      "bufferView": 5,
      "componentType": 5123,
      "type": "SCALAR",
      "count": 546
    },
    {
      "bufferView": 6,
      "componentType": 5126,
      "type": "VEC3",
      "count": 364,
      "min": [9, 0, 0],
      "max": [16, 5, 6]
    },
    {
      "bufferView": 6,
      "componentType": 5126,
      "type": "VEC3",
      "byteOffset": 12,
      "count": 364
    },
    {
      "bufferView": 6,
      "componentType": 5126,
      "type": "VEC2",
      "byteOffset": 24,
      "count": 364
    },
    {
      "bufferView": 7,
      "componentType": 5123,
      "type": "SCALAR",
      "count": 318
    },
    {
      "bufferView": 8,
      "componentType": 5126,
      "type": "VEC3",
      "count": 212,
      "min": [0, 0, 0],
      "max": [5, 5, 3]
    },
    {
      "bufferView": 8,
      "componentType": 5126,
      "type": "VEC3",
      "byteOffset": 12,
      "count": 212
    },
    {
      "bufferView": 8,
      "componentType": 5126,
      "type": "VEC2",
      "byteOffset": 24,
      "count": 212
    },
    {
      "bufferView": 9,
      "componentType": 5123,
      "type": "SCALAR",
      "count": 378
    },
    {
      "bufferView": 10,
      "componentType": 5126,
      "type": "VEC3",
      "count": 252,
      "min": [9, 9, 15],
      "max": [16, 16, 16]
    },
    {
      "bufferView": 10,
      "componentType": 5126,
      "type": "VEC3",
      "byteOffset": 12,
      "count": 252
    },
    {
      "bufferView": 10,
      "componentType": 5126,
      "type": "VEC2",
      "byteOffset": 24,
      "count": 252
    },
    {
      "bufferView": 11,
      "componentType": 5123,
      "type": "SCALAR",
      "count": 282
    },
    {
      "bufferView": 12,
      "componentType": 5126,
      "type": "VEC3",
      "count": 188,
      "min": [0, 9, 15],
      "max": [5, 16, 16]
    },
    {
      "bufferView": 12,
      "componentType": 5126,
      "type": "VEC3",
      "byteOffset": 12,
      "count": 188
    },
    {
      "bufferView": 12,
      "componentType": 5126,
      "type": "VEC2",
      "byteOffset": 24,
      "count": 188
    },
    {
      "bufferView": 13,
      "componentType": 5123,
      "type": "SCALAR",
      "count": 282
    },
    {
      "bufferView": 14,
      "componentType": 5126,
      "type": "VEC3",
      "count": 188,
      "min": [9, 0, 15],
      "max": [16, 5, 16]
    },
    {
      "bufferView": 14,
      "componentType": 5126,
      "type": "VEC3",
      "byteOffset": 12,
      "count": 188
    },
    {
      "bufferView": 14,
      "componentType": 5126,
      "type": "VEC2",
      "byteOffset": 24,
      "count": 188
    },
    {
      "bufferView": 15,
      "componentType": 5123,
      "type": "SCALAR",
      "count": 210
    },
    {
      "bufferView": 16,
      "componentType": 5126,
      "type": "VEC3",
      "count": 140,
      "min": [0, 0, 15],
      "max": [5, 5, 16]
    },
    {
      "bufferView": 16,
      "componentType": 5126,
      "type": "VEC3",
      "byteOffset": 12,
      "count": 140
    },
    {
      "bufferView": 16,
      "componentType": 5126,
      "type": "VEC2",
      "byteOffset": 24,
      "count": 140
    }
  ],
  "asset": {
    "generator": "goxel",
    "version": "2.0"
  },
  "bufferViews": [
    {
      "buffer": 0,
      "byteLength": 144
    },
    {
      "buffer": 2,
      "byteLength": 1716
    },
    {
      "buffer": 1,
      "byteLength": 18304,
      "byteStride": 32
    },
    {
      "buffer": 4,
      "byteLength": 948
    },
    {
      "buffer": 3,
      "byteLength": 10112,
      "byteStride": 32
    },
    {
      "buffer": 6,
      "byteLength": 1092
    },
    {
      "buffer": 5,
      "byteLength": 11648,
      "byteStride": 32
    },
    {
      "buffer": 8,
      "byteLength": 636
    },
    {
      "buffer": 7,
      "byteLength": 6784,
      "byteStride": 32
    },
    {
      "buffer": 10,
      "byteLength": 756
    },
    {
      "buffer": 9,
      "byteLength": 8064,
      "byteStride": 32
    },
    {
      "buffer": 12,
      "byteLength": 564
    },
    {
      "buffer": 11,
      "byteLength": 6016,
      "byteStride": 32
    },
    {
      "buffer": 14,
      "byteLength": 564
    },
    {
      "buffer": 13,
      "byteLength": 6016,
      "byteStride": 32
    },
    {
      "buffer": 16,
      "byteLength": 420
    },
    {
      "buffer": 15,
      "byteLength": 4480,
      "byteStride": 32
    }
  ],
  "buffers": [
    {
      "uri": "data:application/octet-stream;base64,",
      "byteLength": 144
    },
    {
      "uri": "data:application/octet-stream;base64,",
      "byteLength": 18304
    },
    {
      "uri": "data:application/octet-stream;base64,",
      "byteLength": 1716
    },
    {
      "uri": "data:application/octet-stream;base64,",
      "byteLength": 10112
    },
    {
      "uri": "data:application/octet-stream;base64,",
      "byteLength": 948
    },
    {
      "uri": "data:application/octet-stream;base64,",
      "byteLength": 11648
    },
    {
      "uri": "data:application/octet-stream;base64,",
      "byteLength": 1092
    },
    {
      "uri": "data:application/octet-stream;base64,",
      "byteLength": 6784
    },
    {
      "uri": "data:application/octet-stream;base64,",
      "byteLength": 636
    },
    {
      "uri": "data:application/octet-stream;base64,",
      "byteLength": 8064
    },
    {
      "uri": "data:application/octet-stream;base64,",
      "byteLength": 756
    },
    {
      "uri": "data:application/octet-stream;base64,",
      "byteLength": 6016
    },
    {
      "uri": "data:application/octet-stream;base64,",
      "byteLength": 564
    },
    {
      "uri": "data:application/octet-stream;base64,",
      "byteLength": 6016
    },
    {
      "uri": "data:application/octet-stream;base64,",
      "byteLength": 564
    },
    {
      "uri": "data:application/octet-stream;base64,",
      "byteLength": 4480
    },
    {
      "uri": "data:application/octet-stream;base64,",
      "byteLength": 420
    }
  ],
  "images": [
    {
      "bufferView": 0,
      "mimeType": "image/png"
    }
  ],
  "meshes": [
    {
      "primitives": [
        {
          "indices": 0,
          "material": 0,
          "attributes": {
            "POSITION": 1,
            "NORMAL": 2,
            "TEXCOORD_0": 3
          }
        }
      ]
    },
    {
      "primitives": [
        {
          "indices": 4,
          "material": 0,
          "attributes": {
            "POSITION": 5,
            "NORMAL": 6,
            "TEXCOORD_0": 7
          }
        }
      ]
    },
    {
      "primitives": [
        {
          "indices": 8,
          "material": 0,
          "attributes": {
            "POSITION": 9,
            "NORMAL": 10,
            "TEXCOORD_0": 11
          }
        }
      ]
    },
    {
      "primitives": [
        {
          "indices": 12,
          "material": 0,
          "attributes": {
            "POSITION": 13,
            "NORMAL": 14,
            "TEXCOORD_0": 15
          }
        }
      ]
    },
    {
      "primitives": [
        {
          "indices": 16,
          "material": 0,
          "attributes": {
            "POSITION": 17,
            "NORMAL": 18,
            "TEXCOORD_0": 19
          }
        }
      ]
    },
    {
      "primitives": [
        {
          "indices": 20,
          "material": 0,
          "attributes": {
            "POSITION": 21,
            "NORMAL": 22,
            "TEXCOORD_0": 23
          }
        }
      ]
    },
    {
      "primitives": [
        {
          "indices": 24,
          "material": 0,
          "attributes": {
            "POSITION": 25,
            "NORMAL": 26,
            "TEXCOORD_0": 27
          }
        }
      ]
    },
    {
      "primitives": [
        {
          "indices": 28,
          "material": 0,
          "attributes": {
            "POSITION": 29,
            "NORMAL": 30,
            "TEXCOORD_0": 31
          }
        }
      ]
    }
  ],
  "materials": [
    {
      "name": "Material.1",
      "pbrMetallicRoughness": {
        "baseColorTexture": {
          "index": 0
        },
        "metallicFactor": 0.200000003,
        "roughnessFactor": 0.5
      }
    }
  ],
  "nodes": [
    {
      "children": [ 9 ],
      "matrix": [1, 0, 0, 0, 0, 0, -1, 0, 0, 1, 0, 0, 0, 0, 0, 1]
    },
    {
      "mesh": 0,
      "translation": [-16, -16, 0]
    },
    {
      "mesh": 1,
      "translation": [0, -16, 0]
    },
    {
      "mesh": 2,
      "translation": [-16, 0, 0]
    },
    {
      "mesh": 3,
      "translation": [0, 0, 0]
    },
    {
      "mesh": 4,
      "translation": [-16, -16, -16]
    },
    {
      "mesh": 5,
      "translation": [0, -16, -16]
    },
    {
      "mesh": 6,
      "translation": [-16, 0, -16]
    },
    {
      "mesh": 7,
      "translation": [0, 0, -16]
    },
    {
      "children": [ 1, 2, 3, 4, 5, 6, 7, 8 ]
    }
  ],
  "scenes": [
    {
      "nodes": [ 0 ]
    }
  ],
  "textures": [
    {
      "source": 0
    }
  ]
}
