{
  "accessors": [
    {
      "bufferView": 1,
      "componentType": 5123,
      "type": "SCALAR",
      "count": 1974
    },
    {
      "bufferView": 2,
      "componentType": 5126,
      "type": "VEC3",
      "count": 1316,
      "min": [4, 11, 0],
      "max": [16, 16, 16]
    },
    {
      "bufferView": 2,
      "componentType": 5126,
      "type": "VEC3",
      "byteOffset": 12,
      "count": 1316
    },
    {
      "bufferView": 2,
      "componentType": 5126,
      "type": "VEC2",
      "byteOffset": 24,
      "count": 1316
    },
    {
      "bufferView": 3,
      "componentType": 5123,
      "type": "SCALAR",
      "count": 1986
    },
    {
      "bufferView": 4,
      "componentType": 5126,
      "type": "VEC3",
      "count": 1324,
      "min": [0, 11, 0],
      "max": [12, 16, 16]
    },
    {
      "bufferView": 4,
      "componentType": 5126,
      "type": "VEC3",
      "byteOffset": 12,
      "count": 1324
    },
    {
      "bufferView": 4,
      "componentType": 5126,
      "type": "VEC2",
      "byteOffset": 24,
      "count": 1324
    },
    {
      "bufferView": 5,
      "componentType": 5123,
      "type": "SCALAR",
      "count": 1806
    },
    {
      "bufferView": 6,
      "componentType": 5126,
      "type": "VEC3",
      "count": 1204,
      "min": [4, 0, 0],
      "max": [16, 4, 16]
    },
    {
      "bufferView": 6,
      "componentType": 5126,
      "type": "VEC3",
      "byteOffset": 12,
      "count": 1204
    },
    {
      "bufferView": 6,
      "componentType": 5126,
      "type": "VEC2",
      "byteOffset": 24,
      "count": 1204
    },
    {
      "bufferView": 7,
      "componentType": 5123,
      "type": "SCALAR",
      "count": 1806
    },
    {
      "bufferView": 8,
      "componentType": 5126,
      "type": "VEC3",
      "count": 1204,
      "min": [0, 0, 0],
      "max": [12, 4, 16]
    },
    {
      "bufferView": 8,
      "componentType": 5126,
      "type": "VEC3",
      "byteOffset": 12,
      "count": 1204
    },
    {
      "bufferView": 8,
      "componentType": 5126,
      "type": "VEC2",
      "byteOffset": 24,
      "count": 1204
    },
    {
      "bufferView": 9,
      "componentType": 5123,
      "type": "SCALAR",
      "count": 3906
    },
    {
      "bufferView": 10,
      "componentType": 5126,
      "type": "VEC3",
      "count": 2604,
      "min": [4, 11, 0],
      "max": [16, 16, 16]
    },
    {
      "bufferView": 10,
      "componentType": 5126,
      "type": "VEC3",
      "byteOffset": 12,
      "count": 2604
    },
    {
      "bufferView": 10,
      "componentType": 5126,
      "type": "VEC2",
      "byteOffset": 24,
      "count": 2604
    },
    {
      "bufferView": 11,
      "componentType": 5123,
      "type": "SCALAR",
      "count": 2724
    },
    {
      "bufferView": 12,
      "componentType": 5126,
      "type": "VEC3",
      "count": 1816,
      "min": [0, 12, 0],
      "max": [12, 16, 16]
    },
    {
      "bufferView": 12,
      "componentType": 5126,
      "type": "VEC3",
      "byteOffset": 12,
      "count": 1816
    },
    {
      "bufferView": 12,
      "componentType": 5126,
      "type": "VEC2",
      "byteOffset": 24,
      "count": 1816
    },
    {
      "bufferView": 13,
      "componentType": 5123,
      "type": "SCALAR",
      "count": 2640
    },
    {
      "bufferView": 14,
      "componentType": 5126,
      "type": "VEC3",
      "count": 1760,
      "min": [1, 0, 0],
      "max": [16, 3, 16]
    },
    {
      "bufferView": 14,
      "componentType": 5126,
      "type": "VEC3",
      "byteOffset": 12,
      "count": 1760
    },
    {
      "bufferView": 14,
      "componentType": 5126,
      "type": "VEC2",
      "byteOffset": 24,
      "count": 1760
    },
    {
      "bufferView": 15,
      "componentType": 5123,
      "type": "SCALAR",
      "count": 2388
    },
    {
      "bufferView": 16,
      "componentType": 5126,
      "type": "VEC3",
      "count": 1592,
      "min": [0, 0, 0],
      "max": [12, 3, 16]
    },
    {
      "bufferView": 16,
      "componentType": 5126,
      "type": "VEC3",
      "byteOffset": 12,
      "count": 1592
    },
    {
      "bufferView": 16,
      "componentType": 5126,
      "type": "VEC2",
      "byteOffset": 24,
      "count": 1592
    },
    {
      "bufferView": 17,
      "componentType": 5123,
      "type": "SCALAR",
      "count": 102
    },
    {
      "bufferView": 18,
      "componentType": 5126,
      "type": "VEC3",
      "count": 68,
      "min": [8, 14, 0],
      "max": [9, 15, 4]
    },
    {
      "bufferView": 18,
      "componentType": 5126,
      "type": "VEC3",
      "byteOffset": 12,
      "count": 68
    },
    {
      "bufferView": 18,
      "componentType": 5126,
      "type": "VEC2",
      "byteOffset": 24,
      "count": 68
    },
    {
      "bufferView": 19,
      "componentType": 5123,
      "type": "SCALAR",
      "count": 120
    },
    {
      "bufferView": 20,
      "componentType": 5126,
      "type": "VEC3",
      "count": 80,
      "min": [2, 11, 0],
      "max": [5, 14, 11]
    },
    {
      "bufferView": 20,
      "componentType": 5126,
      "type": "VEC3",
      "byteOffset": 12,
      "count": 80
    },
    {
      "bufferView": 20,
      "componentType": 5126,
      "type": "VEC2",
      "byteOffset": 24,
      "count": 80
    },
    {
      "bufferView": 21,
      "componentType": 5123,
      "type": "SCALAR",
      "count": 132
    },
    {
      "bufferView": 22,
      "componentType": 5126,
      "type": "VEC3",
      "count": 88,
      "min": [1, 1, 10],
      "max": [5, 2, 12]
    },
    {
      "bufferView": 22,
      "componentType": 5126,
      "type": "VEC3",
      "byteOffset": 12,
      "count": 88
    },
    {
      "bufferView": 22,
      "componentType": 5126,
      "type": "VEC2",
      "byteOffset": 24,
      "count": 88
    },
    {
      "bufferView": 23,
      "componentType": 5123,
      "type": "SCALAR",
      "count": 72
    },
    {
      "bufferView": 24,
      "componentType": 5126,
      "type": "VEC3",
      "count": 48,
      "min": [4, 4, 14],
      "max": [6, 5, 16]
    },
    {
      "bufferView": 24,
      "componentType": 5126,
      "type": "VEC3",
      "byteOffset": 12,
      "count": 48
    },
    {
      "bufferView": 24,
      "componentType": 5126,
      "type": "VEC2",
      "byteOffset": 24,
      "count": 48
    },
    {
      "bufferView": 25,
      "componentType": 5123,
      "type": "SCALAR",
      "count": 36
    },
    {
      "bufferView": 26,
      "componentType": 5126,
      "type": "VEC3",
      "count": 24,
      "min": [5, 11, 6],
      "max": [6, 12, 7]
    },
    {
      "bufferView": 26,
      "componentType": 5126,
      "type": "VEC3",
      "byteOffset": 12,
      "count": 24
    },
    {
      "bufferView": 26,
      "componentType": 5126,
      "type": "VEC2",
      "byteOffset": 24,
      "count": 24
    }
  ],
  "asset": {
    "generator": "goxel",
    "version": "2.0"
  },
  "bufferViews": [
    {
      "buffer": 0,
      "byteLength": 248
    },
    {
      "buffer": 2,
      "byteLength": 3948
    },
    {
      "buffer": 1,
      "byteLength": 42112,
      "byteStride": 32
    },
    {
      "buffer": 4,
      "byteLength": 3972
    },
    {
      "buffer": 3,
      "byteLength": 42368,
      "byteStride": 32
    },
    {
      "buffer": 6,
      "byteLength": 3612
    },
    {
      "buffer": 5,
      "byteLength": 38528,
      "byteStride": 32
    },
    {
      "buffer": 8,
      "byteLength": 3612
    },
    {
      "buffer": 7,
      "byteLength": 38528,
      "byteStride": 32
    },
    {
      "buffer": 10,
      "byteLength": 7812
    },
    {
      "buffer": 9,
      "byteLength": 83328,
      "byteStride": 32
    },
    {
      "buffer": 12,
      "byteLength": 5448
    },
    {
      "buffer": 11,
      "byteLength": 58112,
      "byteStride": 32
    },
    {
      "buffer": 14,
      "byteLength": 5280
    },
    {
      "buffer": 13,
      "byteLength": 56320,
      "byteStride": 32
    },
    {
      "buffer": 16,
      "byteLength": 4776
    },
    {
      "buffer": 15,
      "byteLength": 50944,
      "byteStride": 32
    },
    {
      "buffer": 18,
      "byteLength": 204
    },
    {
      "buffer": 17,
      "byteLength": 2176,
      "byteStride": 32
    },
    {
      "buffer": 20,
      "byteLength": 240
    },
    {
      "buffer": 19,
      "byteLength": 2560,
      "byteStride": 32
    },
    {
      "buffer": 22,
      "byteLength": 264
    },
    {
      "buffer": 21,
      "byteLength": 2816,
      "byteStride": 32
    },
    {
      "buffer": 24,
      "byteLength": 144
    },
    {
      "buffer": 23,
      "byteLength": 1536,
      "byteStride": 32
    },
    {
      "buffer": 26,
      "byteLength": 72
    },
    {
      "buffer": 25,
      "byteLength": 768,
      "byteStride": 32
    }
  ],
  "buffers": [
    {
      "uri": "data:application/octet-stream;base64,",
      "byteLength": 248
    },
    {
      "uri": "data:application/octet-stream;base64,",
      "byteLength": 42112
    },
    {
      "uri": "data:application/octet-stream;base64,",
      "byteLength": 3948
    },
    {
      "uri": "data:application/octet-stream;base64,",
      "byteLength": 42368
    },
    {
      "uri": "data:application/octet-stream;base64,",
      "byteLength": 3972
    },
    {
      "uri": "data:application/octet-stream;base64,",
      "byteLength": 38528
    },
    {
      "uri": "data:application/octet-stream;base64,",
      "byteLength": 3612
    },
    {
      "uri": "data:application/octet-stream;base64,",
      "byteLength": 38528
    },
    {
      "uri": "data:application/octet-stream;base64,",
      "byteLength": 3612
    },
    {
      "uri": "data:application/octet-stream;base64,",
      "byteLength": 83328
    },
    {
      "uri": "data:application/octet-stream;base64,",
      "byteLength": 7812
    },
    {
      "uri": "data:application/octet-stream;base64,",
      "byteLength": 58112
    },
    {
      "uri": "data:application/octet-stream;base64,",
      "byteLength": 5448
    },
    {
      "uri": "data:application/octet-stream;base64,",
      "byteLength": 56320
    },
    {
      "uri": "data:application/octet-stream;base64,",
      "byteLength": 5280
    },
    {
      "uri": "data:application/octet-stream;base64,",
      "byteLength": 50944
    },
    {
      "uri": "data:application/octet-stream;base64,",
      "byteLength": 4776
    },
    {
      "uri": "data:application/octet-stream;base64,",
      "byteLength": 2176
    },
    {
      "uri": "data:application/octet-stream;base64,",
      "byteLength": 204
    },
    {
      "uri": "data:application/octet-stream;base64,",
      "byteLength": 2560
    },
    {
      "uri": "data:application/octet-stream;base64,",
      "byteLength": 240
    },
    {
      "uri": "data:application/octet-stream;base64,",
      "byteLength": 2816
    },
    {
      "uri": "data:application/octet-stream;base64,",
      "byteLength": 264
    },
    {
      "uri": "data:application/octet-stream;base64,",
      "byteLength": 1536
    },
    {
      "uri": "data:application/octet-stream;base64,",
      "byteLength": 144
    },
    {
      "uri": "data:application/octet-stream;base64,",
      "byteLength": 768
    },
    {
      "uri": "data:application/octet-stream;base64,",
      "byteLength": 72
    }
  ],
  "images": [
    {
      "bufferView": 0,
      "mimeType": "image/png"
    }
  ],
  "meshes": [
    {
      "primitives": [
        {
          "indices": 0,
          "material": 0,
          "attributes": {
            "POSITION": 1,
            "NORMAL": 2,
            "TEXCOORD_0": 3
          }
        }
      ]
    },
    {
      "primitives": [
        {
          "indices": 4,
          "material": 0,
          "attributes": {
            "POSITION": 5,
            "NORMAL": 6,
            "TEXCOORD_0": 7
          }
        }
      ]
    },
    {
      "primitives": [
        {
          "indices": 8,
          "material": 0,
          "attributes": {
            "POSITION": 9,
            "NORMAL": 10,
            "TEXCOORD_0": 11
          }
        }
      ]
    },
    {
      "primitives": [
        {
          "indices": 12,
          "material": 0,
          "attributes": {
            "POSITION": 13,
            "NORMAL": 14,
            "TEXCOORD_0": 15
          }
        }
      ]
    },
    {
      "primitives": [
        {
          "indices": 16,
          "material": 0,
          "attributes": {
            "POSITION": 17,
            "NORMAL": 18,
            "TEXCOORD_0": 19
          }
        }
      ]
    },
    {
      "primitives": [
        {
          "indices": 20,
          "material": 0,
          "attributes": {
            "POSITION": 21,
            "NORMAL": 22,
            "TEXCOORD_0": 23
          }
        }
      ]
    },
    {
      "primitives": [
        {
          "indices": 24,
          "material": 0,
          "attributes": {
            "POSITION": 25,
            "NORMAL": 26,
            "TEXCOORD_0": 27
          }
        }
      ]
    },
    {
      "primitives": [
        {
          "indices": 28,
          "material": 0,
          "attributes": {
            "POSITION": 29,
            "NORMAL": 30,
            "TEXCOORD_0": 31
          }
        }
      ]
    },
    {
      "primitives": [
        {
          "indices": 32,
          "material": 0,
          "attributes": {
            "POSITION": 33,
            "NORMAL": 34,
            "TEXCOORD_0": 35
          }
        }
      ]
    },
    {
      "primitives": [
        {
          "indices": 36,
          "material": 1,
          "attributes": {
            "POSITION": 37,
            "NORMAL": 38,
            "TEXCOORD_0": 39
          }
        }
      ]
    },
    {
      "primitives": [
        {
          "indices": 40,
          "material": 1,
          "attributes": {
            "POSITION": 41,
            "NORMAL": 42,
            "TEXCOORD_0": 43
          }
        }
      ]
    },
    {
      "primitives": [
        {
          "indices": 44,
          "material": 1,
          "attributes": {
            "POSITION": 45,
            "NORMAL": 46,
            "TEXCOORD_0": 47
          }
        }
      ]
    },
    {
      "primitives": [
        {
          "indices": 48,
          "material": 1,
          "attributes": {
            "POSITION": 49,
            "NORMAL": 50,
            "TEXCOORD_0": 51
          }
        }
      ]
    }
  ],
  "materials": [
    {
      "name": "Material.1",
      "pbrMetallicRoughness": {
        "baseColorTexture": {
          "index": 0
        },
        "metallicFactor": 0.200000003,
        "roughnessFactor": 0.5
      }
    },
    {
      "name": "Lights",
      "pbrMetallicRoughness": {
        "baseColorTexture": {
          "index": 0
        },
        "metallicFactor": 0.200000003,
        "roughnessFactor": 0.5,
        "baseColorFactor": [0, 1, 0.827450991, 1]
      },
      "emissiveFactor": [0, 2.10000014, 1.73764718]
    }
  ],
  "nodes": [
    {
      "children": [ 10, 15 ],
      "matrix": [1, 0, 0, 0, 0, 0, -1, 0, 0, 1, 0, 0, 0, 0, 0, 1]
    },
    {
      "mesh": 0,
      "translation": [-16, -16, 0]
    },
    {
      "mesh": 1,
      "translation": [0, -16, 0]
    },
    {
      "mesh": 2,
      "translation": [-16, 0, 0]
    },
    {
      "mesh": 3,
      "translation": [0, 0, 0]
    },
    {
      "mesh": 4,
      "translation": [-16, -16, 16]
    },
    {
      "mesh": 5,
      "translation": [0, -16, 16]
    },
    {
      "mesh": 6,
      "translation": [-16, 0, 16]
    },
    {
      "mesh": 7,
      "translation": [0, 0, 16]
    },
    {
      "mesh": 8,
      "translation": [-16, -16, 32]
    },
    {
      "children": [ 1, 2, 3, 4, 5, 6, 7, 8, 9 ]
    },
    {
      "mesh": 9,
      "translation": [0, -16, 16]
    },
    {
      "mesh": 10,
      "translation": [0, 0, 16]
    },
    {
      "mesh": 11,
      "translation": [0, 0, 0]
    },
    {
      "mesh": 12,
      "translation": [-16, -16, 0]
    },
    {
      "children": [ 11, 12, 13, 14 ]
    }
  ],
  "scenes": [
    {
      "nodes": [ 0 ]
    }
  ],
  "textures": [
    {
      "source": 0
    }
  ]
}
