{
  "accessors": [
    {
      "bufferView": 1,
      "componentType": 5123,
      "type": "SCALAR",
      "count": 36
    },
    {
      "bufferView": 2,
      "componentType": 5126,
      "type": "VEC3",
      "count": 24,
      "min": [1, 15, 15],
      "max": [2, 16, 16]
    },
    {
      "bufferView": 2,
      "componentType": 5126,
      "type": "VEC3",
      "byteOffset": 12,
      "count": 24
    },
    {
      "bufferView": 2,
      "componentType": 5126,
      "type": "VEC2",
      "byteOffset": 24,
      "count": 24
    },
    {
      "bufferView": 3,
      "componentType": 5123,
      "type": "SCALAR",
      "count": 582
    },
    {
      "bufferView": 4,
      "componentType": 5126,
      "type": "VEC3",
      "count": 388,
      "min": [12, 12, 1],
      "max": [16, 16, 16]
    },
    {
      "bufferView": 4,
      "componentType": 5126,
      "type": "VEC3",
      "byteOffset": 12,
      "count": 388
    },
    {
      "bufferView": 4,
      "componentType": 5126,
      "type": "VEC2",
      "byteOffset": 24,
      "count": 388
    },
    {
      "bufferView": 5,
      "componentType": 5123,
      "type": "SCALAR",
      "count": 648
    },
    {
      "bufferView": 6,
      "componentType": 5126,
      "type": "VEC3",
      "count": 432,
      "min": [0, 9, 0],
      "max": [6, 16, 16]
    },
    {
      "bufferView": 6,
      "componentType": 5126,
      "type": "VEC3",
      "byteOffset": 12,
      "count": 432
    },
    {
      "bufferView": 6,
      "componentType": 5126,
      "type": "VEC2",
      "byteOffset": 24,
      "count": 432
    },
    {
      "bufferView": 7,
      "componentType": 5123,
      "type": "SCALAR",
      "count": 708
    },
    {
      "bufferView": 8,
      "componentType": 5126,
      "type": "VEC3",
      "count": 472,
      "min": [9, 0, 0],
      "max": [16, 6, 16]
    },
    {
      "bufferView": 8,
      "componentType": 5126,
      "type": "VEC3",
      "byteOffset": 12,
      "count": 472
    },
    {
      "bufferView": 8,
      "componentType": 5126,
      "type": "VEC2",
      "byteOffset": 24,
      "count": 472
    },
    {
      "bufferView": 9,
      "componentType": 5123,
      "type": "SCALAR",
      "count": 426
    },
    {
      "bufferView": 10,
      "componentType": 5126,
      "type": "VEC3",
      "count": 284,
      "min": [0, 0, 0],
      "max": [4, 5, 16]
    },
    {
      "bufferView": 10,
      "componentType": 5126,
      "type": "VEC3",
      "byteOffset": 12,
      "count": 284
    },
    {
      "bufferView": 10,
      "componentType": 5126,
      "type": "VEC2",
      "byteOffset": 24,
      "count": 284
    },
    {
      "bufferView": 11,
      "componentType": 5123,
      "type": "SCALAR",
      "count": 2154
    },
    {
      "bufferView": 12,
      "componentType": 5126,
      "type": "VEC3",
      "count": 1436,
      "min": [7, 9, 0],
      "max": [16, 16, 16]
    },
    {
      "bufferView": 12,
      "componentType": 5126,
      "type": "VEC3",
      "byteOffset": 12,
      "count": 1436
    },
    {
      "bufferView": 12,
      "componentType": 5126,
      "type": "VEC2",
      "byteOffset": 24,
      "count": 1436
    },
    {
      "bufferView": 13,
      "componentType": 5123,
      "type": "SCALAR",
      "count": 2058
    },
    {
      "bufferView": 14,
      "componentType": 5126,
      "type": "VEC3",
      "count": 1372,
      "min": [0, 9, 0],
      "max": [6, 16, 15]
    },
    {
      "bufferView": 14,
      "componentType": 5126,
      "type": "VEC3",
      "byteOffset": 12,
      "count": 1372
    },
    {
      "bufferView": 14,
      "componentType": 5126,
      "type": "VEC2",
      "byteOffset": 24,
      "count": 1372
    },
    {
      "bufferView": 15,
      "componentType": 5123,
      "type": "SCALAR",
      "count": 2082
    },
    {
      "bufferView": 16,
      "componentType": 5126,
      "type": "VEC3",
      "count": 1388,
      "min": [6, 0, 0],
      "max": [16, 7, 16]
    },
    {
      "bufferView": 16,
      "componentType": 5126,
      "type": "VEC3",
      "byteOffset": 12,
      "count": 1388
    },
    {
      "bufferView": 16,
      "componentType": 5126,
      "type": "VEC2",
      "byteOffset": 24,
      "count": 1388
    },
    {
      "bufferView": 17,
      "componentType": 5123,
      "type": "SCALAR",
      "count": 1722
    },
    {
      "bufferView": 18,
      "componentType": 5126,
      "type": "VEC3",
      "count": 1148,
      "min": [0, 0, 0],
      "max": [7, 7, 15]
    },
    {
      "bufferView": 18,
      "componentType": 5126,
      "type": "VEC3",
      "byteOffset": 12,
      "count": 1148
    },
    {
      "bufferView": 18,
      "componentType": 5126,
      "type": "VEC2",
      "byteOffset": 24,
      "count": 1148
    },
    {
      "bufferView": 19,
      "componentType": 5123,
      "type": "SCALAR",
      "count": 36
    },
    {
      "bufferView": 20,
      "componentType": 5126,
      "type": "VEC3",
      "count": 24,
      "min": [2, 15, 12],
      "max": [3, 16, 13]
    },
    {
      "bufferView": 20,
      "componentType": 5126,
      "type": "VEC3",
      "byteOffset": 12,
      "count": 24
    },
    {
      "bufferView": 20,
      "componentType": 5126,
      "type": "VEC2",
      "byteOffset": 24,
      "count": 24
    },
    {
      "bufferView": 21,
      "componentType": 5123,
      "type": "SCALAR",
      "count": 36
    },
    {
      "bufferView": 22,
      "componentType": 5126,
      "type": "VEC3",
      "count": 24,
      "min": [3, 4, 9],
      "max": [4, 5, 10]
    },
    {
      "bufferView": 22,
      "componentType": 5126,
      "type": "VEC3",
      "byteOffset": 12,
      "count": 24
    },
    {
      "bufferView": 22,
      "componentType": 5126,
      "type": "VEC2",
      "byteOffset": 24,
      "count": 24
    },
    {
      "bufferView": 23,
      "componentType": 5123,
      "type": "SCALAR",
      "count": 108
    },
    {
      "bufferView": 24,
      "componentType": 5126,
      "type": "VEC3",
      "count": 72,
      "min": [9, 12, 3],
      "max": [15, 15, 13]
    },
    {
      "bufferView": 24,
      "componentType": 5126,
      "type": "VEC3",
      "byteOffset": 12,
      "count": 72
    },
    {
      "bufferView": 24,
      "componentType": 5126,
      "type": "VEC2",
      "byteOffset": 24,
      "count": 72
    },
    {
      "bufferView": 25,
      "componentType": 5123,
      "type": "SCALAR",
      "count": 72
    },
    {
      "bufferView": 26,
      "componentType": 5126,
      "type": "VEC3",
      "count": 48,
      "min": [12, 4, 2],
      "max": [13, 7, 10]
    },
    {
      "bufferView": 26,
      "componentType": 5126,
      "type": "VEC3",
      "byteOffset": 12,
      "count": 48
    },
    {
      "bufferView": 26,
      "componentType": 5126,
      "type": "VEC2",
      "byteOffset": 24,
      "count": 48
    },
    {
      "bufferView": 27,
      "componentType": 5123,
      "type": "SCALAR",
      "count": 72
    },
    {
      "bufferView": 28,
      "componentType": 5126,
      "type": "VEC3",
      "count": 48,
      "min": [1, 11, 11],
      "max": [3, 12, 13]
    },
    {
      "bufferView": 28,
      "componentType": 5126,
      "type": "VEC3",
      "byteOffset": 12,
      "count": 48
    },
    {
      "bufferView": 28,
      "componentType": 5126,
      "type": "VEC2",
      "byteOffset": 24,
      "count": 48
    },
    {
      "bufferView": 29,
      "componentType": 5123,
      "type": "SCALAR",
      "count": 72
    },
    {
      "bufferView": 30,
      "componentType": 5126,
      "type": "VEC3",
      "count": 48,
      "min": [14, 2, 11],
      "max": [16, 4, 13]
    },
    {
      "bufferView": 30,
      "componentType": 5126,
      "type": "VEC3",
      "byteOffset": 12,
      "count": 48
    },
    {
      "bufferView": 30,
      "componentType": 5126,
      "type": "VEC2",
      "byteOffset": 24,
      "count": 48
    }
  ],
  "asset": {
    "generator": "goxel",
    "version": "2.0"
  },
  "bufferViews": [
    {
      "buffer": 0,
      "byteLength": 115
    },
    {
      "buffer": 2,
      "byteLength": 72
    },
    {
      "buffer": 1,
      "byteLength": 768,
      "byteStride": 32
    },
    {
      "buffer": 4,
      "byteLength": 1164
    },
    {
      "buffer": 3,
      "byteLength": 12416,
      "byteStride": 32
    },
    {
      "buffer": 6,
      "byteLength": 1296
    },
    {
      "buffer": 5,
      "byteLength": 13824,
      "byteStride": 32
    },
    {
      "buffer": 8,
      "byteLength": 1416
    },
    {
      "buffer": 7,
      "byteLength": 15104,
      "byteStride": 32
    },
    {
      "buffer": 10,
      "byteLength": 852
    },
    {
      "buffer": 9,
      "byteLength": 9088,
      "byteStride": 32
    },
    {
      "buffer": 12,
      "byteLength": 4308
    },
    {
      "buffer": 11,
      "byteLength": 45952,
      "byteStride": 32
    },
    {
      "buffer": 14,
      "byteLength": 4116
    },
    {
      "buffer": 13,
      "byteLength": 43904,
      "byteStride": 32
    },
    {
      "buffer": 16,
      "byteLength": 4164
    },
    {
      "buffer": 15,
      "byteLength": 44416,
      "byteStride": 32
    },
    {
      "buffer": 18,
      "byteLength": 3444
    },
    {
      "buffer": 17,
      "byteLength": 36736,
      "byteStride": 32
    },
    {
      "buffer": 20,
      "byteLength": 72
    },
    {
      "buffer": 19,
      "byteLength": 768,
      "byteStride": 32
    },
    {
      "buffer": 22,
      "byteLength": 72
    },
    {
      "buffer": 21,
      "byteLength": 768,
      "byteStride": 32
    },
    {
      "buffer": 24,
      "byteLength": 216
    },
    {
      "buffer": 23,
      "byteLength": 2304,
      "byteStride": 32
    },
    {
      "buffer": 26,
      "byteLength": 144
    },
    {
      "buffer": 25,
      "byteLength": 1536,
      "byteStride": 32
    },
    {
      "buffer": 28,
      "byteLength": 144
    },
    {
      "buffer": 27,
      "byteLength": 1536,
      "byteStride": 32
    },
    {
      "buffer": 30,
      "byteLength": 144
    },
    {
      "buffer": 29,
      "byteLength": 1536,
      "byteStride": 32
    }
  ],
  "buffers": [
    {
      "uri": "data:application/octet-stream;base64,",
      "byteLength": 115
    },
    {
      "uri": "data:application/octet-stream;base64,",
      "byteLength": 768
    },
    {
      "uri": "data:application/octet-stream;base64,",
      "byteLength": 72
    },
    {
      "uri": "data:application/octet-stream;base64,",
      "byteLength": 12416
    },
    {
      "uri": "data:application/octet-stream;base64,",
      "byteLength": 1164
    },
    {
      "uri": "data:application/octet-stream;base64,",
      "byteLength": 13824
    },
    {
      "uri": "data:application/octet-stream;base64,",
      "byteLength": 1296
    },
    {
      "uri": "data:application/octet-stream;base64,",
      "byteLength": 15104
    },
    {
      "uri": "data:application/octet-stream;base64,",
      "byteLength": 1416
    },
    {
      "uri": "data:application/octet-stream;base64,",
      "byteLength": 9088
    },
    {
      "uri": "data:application/octet-stream;base64,",
      "byteLength": 852
    },
    {
      "uri": "data:application/octet-stream;base64,",
      "byteLength": 45952
    },
    {
      "uri": "data:application/octet-stream;base64,",
      "byteLength": 4308
    },
    {
      "uri": "data:application/octet-stream;base64,",
      "byteLength": 43904
    },
    {
      "uri": "data:application/octet-stream;base64,",
      "byteLength": 4116
    },
    {
      "uri": "data:application/octet-stream;base64,",
      "byteLength": 44416
    },
    {
      "uri": "data:application/octet-stream;base64,",
      "byteLength": 4164
    },
    {
      "uri": "data:application/octet-stream;base64,",
      "byteLength": 36736
    },
    {
      "uri": "data:application/octet-stream;base64,",
      "byteLength": 3444
    },
    {
      "uri": "data:application/octet-stream;base64,",
      "byteLength": 768
    },
    {
      "uri": "data:application/octet-stream;base64,",
      "byteLength": 72
    },
    {
      "uri": "data:application/octet-stream;base64,",
      "byteLength": 768
    },
    {
      "uri": "data:application/octet-stream;base64,",
      "byteLength": 72
    },
    {
      "uri": "data:application/octet-stream;base64,",
      "byteLength": 2304
    },
    {
      "uri": "data:application/octet-stream;base64,",
      "byteLength": 216
    },
    {
      "uri": "data:application/octet-stream;base64,",
      "byteLength": 1536
    },
    {
      "uri": "data:application/octet-stream;base64,",
      "byteLength": 144
    },
    {
      "uri": "data:application/octet-stream;base64,",
      "byteLength": 1536
    },
    {
      "uri": "data:application/octet-stream;base64,",
      "byteLength": 144
    },
    {
      "uri": "data:application/octet-stream;base64,",
      "byteLength": 1536
    },
    {
      "uri": "data:application/octet-stream;base64,",
      "byteLength": 144
    }
  ],
  "images": [
    {
      "bufferView": 0,
      "mimeType": "image/png"
    }
  ],
  "meshes": [
    {
      "primitives": [
        {
          "indices": 0,
          "material": 0,
          "attributes": {
            "POSITION": 1,
            "NORMAL": 2,
            "TEXCOORD_0": 3
          }
        }
      ]
    },
    {
      "primitives": [
        {
          "indices": 4,
          "material": 0,
          "attributes": {
            "POSITION": 5,
            "NORMAL": 6,
            "TEXCOORD_0": 7
          }
        }
      ]
    },
    {
      "primitives": [
        {
          "indices": 8,
          "material": 0,
          "attributes": {
            "POSITION": 9,
            "NORMAL": 10,
            "TEXCOORD_0": 11
          }
        }
      ]
    },
    {
      "primitives": [
        {
          "indices": 12,
          "material": 0,
          "attributes": {
            "POSITION": 13,
            "NORMAL": 14,
            "TEXCOORD_0": 15
          }
        }
      ]
    },
    {
      "primitives": [
        {
          "indices": 16,
          "material": 0,
          "attributes": {
            "POSITION": 17,
            "NORMAL": 18,
            "TEXCOORD_0": 19
          }
        }
      ]
    },
    {
      "primitives": [
        {
          "indices": 20,
          "material": 0,
          "attributes": {
            "POSITION": 21,
            "NORMAL": 22,
            "TEXCOORD_0": 23
          }
        }
      ]
    },
    {
      "primitives": [
        {
          "indices": 24,
          "material": 0,
          "attributes": {
            "POSITION": 25,
            "NORMAL": 26,
            "TEXCOORD_0": 27
          }
        }
      ]
    },
    {
      "primitives": [
        {
          "indices": 28,
          "material": 0,
          "attributes": {
            "POSITION": 29,
            "NORMAL": 30,
            "TEXCOORD_0": 31
          }
        }
      ]
    },
    {
      "primitives": [
        {
          "indices": 32,
          "material": 0,
          "attributes": {
            "POSITION": 33,
            "NORMAL": 34,
            "TEXCOORD_0": 35
          }
        }
      ]
    },
    {
      "primitives": [
        {
          "indices": 36,
          "material": 2,
          "attributes": {
            "POSITION": 37,
            "NORMAL": 38,
            "TEXCOORD_0": 39
          }
        }
      ]
    },
    {
      "primitives": [
        {
          "indices": 40,
          "material": 2,
          "attributes": {
            "POSITION": 41,
            "NORMAL": 42,
            "TEXCOORD_0": 43
          }
        }
      ]
    },
    {
      "primitives": [
        {
          "indices": 44,
          "material": 2,
          "attributes": {
            "POSITION": 45,
            "NORMAL": 46,
            "TEXCOORD_0": 47
          }
        }
      ]
    },
    {
      "primitives": [
        {
          "indices": 48,
          "material": 2,
          "attributes": {
            "POSITION": 49,
            "NORMAL": 50,
            "TEXCOORD_0": 51
          }
        }
      ]
    },
    {
      "primitives": [
        {
          "indices": 52,
          "material": 2,
          "attributes": {
            "POSITION": 53,
            "NORMAL": 54,
            "TEXCOORD_0": 55
          }
        }
      ]
    },
    {
      "primitives": [
        {
          "indices": 56,
          "material": 2,
          "attributes": {
            "POSITION": 57,
            "NORMAL": 58,
            "TEXCOORD_0": 59
          }
        }
      ]
    }
  ],
  "materials": [
    {
      "name": "Material.1",
      "pbrMetallicRoughness": {
        "baseColorTexture": {
          "index": 0
        },
        "metallicFactor": 0.200000003,
        "roughnessFactor": 0.5
      }
    },
    {
      "name": "Material.1",
      "pbrMetallicRoughness": {
        "baseColorTexture": {
          "index": 0
        },
        "metallicFactor": 0.200000003,
        "roughnessFactor": 0.5
      }
    },
    {
      "name": "Lights",
      "pbrMetallicRoughness": {
        "baseColorTexture": {
          "index": 0
        },
        "metallicFactor": 0.300000012,
        "roughnessFactor": 0.5,
        "baseColorFactor": [0.254901975, 1, 0.254901975, 1]
      },
      "emissiveFactor": [0.509803951, 2, 0.509803951]
    }
  ],
  "nodes": [
    {
      "children": [ 1, 11, 18 ],
      "matrix": [1, 0, 0, 0, 0, 0, -1, 0, 0, 1, 0, 0, 0, 0, 0, 1]
    },
    {
      "children": [ ]
    },
    {
      "mesh": 0,
      "translation": [0, -16, -16]
    },
    {
      "mesh": 1,
      "translation": [-16, -16, 0]
    },
    {
      "mesh": 2,
      "translation": [0, -16, 0]
    },
    {
      "mesh": 3,
      "translation": [-16, 0, 0]
    },
    {
      "mesh": 4,
      "translation": [0, 0, 0]
    },
    {
      "mesh": 5,
      "translation": [-16, -16, 16]
    },
    {
      "mesh": 6,
      "translation": [0, -16, 16]
    },
    {
      "mesh": 7,
      "translation": [-16, 0, 16]
    },
    {
      "mesh": 8,
      "translation": [0, 0, 16]
    },
    {
      "children": [ 2, 3, 4, 5, 6, 7, 8, 9, 10 ]
    },
    {
      "mesh": 9,
      "translation": [0, -16, 16]
    },
    {
      "mesh": 10,
      "translation": [0, 0, 16]
    },
    {
      "mesh": 11,
      "translation": [-16, -16, 16]
    },
    {
      "mesh": 12,
      "translation": [-16, 0, 16]
    },
    {
      "mesh": 13,
      "translation": [0, -16, 0]
    },
    {
      "mesh": 14,
      "translation": [-16, 0, 0]
    },
    {
      "children": [ 12, 13, 14, 15, 16, 17 ]
    }
  ],
  "scenes": [
    {
      "nodes": [ 0 ]
    }
  ],
  "textures": [
    {
      "source": 0
    }
  ]
}
